<svg enable-background="new 0 0 453 255.3" height="255.3" viewBox="0 0 453 255.3" width="453" xmlns="http://www.w3.org/2000/svg"><g fill="#fff"><path d="m47.1 202.6.2-.7c-4-2.8-6.3-6.9-8.3-11-1.9-4.1-3.4-8.6-4.2-12.9l-.3-1.6c-.1-.6-.2-1.1-.2-1.7-.2-1.1-.3-2.2-.4-3.3-.1-1-.1-2 0-2.9.1-.8.3-1.4.5-1.8.1-.2.2-.3.4-.5s.5-.3.9-.4c.8-.3 1.8-.4 2.9-.5 2.2-.3 4.7-.4 7.2-.7h.5c1.8-.6 3.6-1.4 5.2-2.2 1.7-.7 3.3-1.4 5-1.9l.4-.1.2-.3c1.3-1.9 1.8-4.2 1.9-6.4 0-2.2-.3-4.4-.7-6.5s-.9-4.1-1.4-6c-.3-.9-.5-1.8-.7-2.7l-.1-.6-.1-.6-.3-1.5c-.9-3.8-1.8-7.5-2.2-11.2s-.2-7.4 1-11.3l-.6-.4c-1.6 1.4-2.8 3.2-3.7 5.2s-1.4 4.2-1.7 6.3c-.5 4.4.1 8.6.9 12.6l.3 1.5c0 .2.1.6.2.8l.3.8c.4 1.1.8 2.1 1.3 3 1 1.9 2.1 3.5 3 5.2s1.8 3.4 2 5.2c.3 1.7 0 3.3-.9 4.7-1.7.4-3.3.9-5 1.2-1.8.4-3.5.6-5.2.7h.5c-2.4-.4-4.8-.8-7.4-1-1.3-.1-2.8-.1-4.4.2-.8.2-1.7.4-2.5.9-.9.4-1.7 1.1-2.4 1.8-1.4 1.5-2.1 3.3-2.4 4.9-.4 1.6-.4 3-.4 4.4s.1 2.7.3 4c.1.7.2 1.3.3 1.9s.2 1.3.4 2c.3 1.3.7 2.6 1.2 3.8s1 2.5 1.6 3.6c1.1 2.4 2.5 4.6 4.1 6.7s3.4 4 5.6 5.6c2.1 2.1 4.6 3.4 7.2 3.7z"/><path d="m69.1 207.4c-.9-1-1.8-2-2.4-3.1-.7-1.2-1.2-2.5-1.9-3.6-.4-.6-.8-1.1-1.3-1.5s-1-.8-1.5-1.1c-1.1-.7-2.2-1.2-3.4-1.6s-2.5-.6-3.9-.9l-.6.4c0 .4.1.8.2 1.2s.2.7.4 1.1c.3.7.6 1.3 1 1.8.7 1.1 1.6 2.1 2.5 2.9.4.4.9.8 1.4 1.2.5.3 1 .6 1.6.8 1.2.4 2.5.7 3.6 1.3 1.1.5 1.9 1.4 2.4 2.5.2.5.4 1.1.3 1.5 0 .2-.1.5-.2.6-.1.2-.2.3-.3.3-.2.1-.5 0-.7.1-.2 0-.5.1-.9.2s-.8.2-1.3.3-.9.2-1.4.3c-1.8.3-3.4.1-5.4-.4s-4.2-1.4-7-2c-.7-.2-1.4-.3-2.2-.4s-1.6-.1-2.5 0c-1.7.2-3.4 1-4.5 2-1.2 1-2.1 2.2-2.7 3.4-.7 1.2-1.1 2.4-1.4 3.7l.6.4c1-.8 2-1.6 2.9-2.3 1-.6 1.9-1.2 2.9-1.5.9-.3 1.7-.3 2.5-.1s1.6.5 2.5.9c1.9.9 4.1 2.3 6.9 3.1 1.4.4 2.9.8 4.5.8s3.2-.2 4.7-.6c.7-.2 1.5-.5 2.2-.8s1.4-.8 2.1-1.3 1.4-1.2 2-2.1c.3-.4.5-1 .7-1.5.1-.6.2-1.2.2-1.7-.1-1.1-.5-2-1-2.7-.7-.5-1.2-1.1-1.6-1.6z"/><path d="m134.3 228.6c-1.3 2.9-3.1 4.1-5.2 5-1 .5-2.2.8-3.3 1.1-1.2.3-2.4.6-3.6 1s-2.5.8-3.9 1.2c-1.4.3-2.8.5-4.2.3s-2.7-.6-3.9-1.3-2.2-1.6-2.8-2.7c-.2-.3-.3-.5-.4-.8l-.3-.8-.4-1.7-.2-1c-.1-.3-.1-.7-.2-1-.2-.6-.3-1.3-.4-2-.5-2.6-.8-5.5-1.8-8.5-.3-.8-.5-1.5-.9-2.3-.2-.4-.3-.8-.6-1.1-.2-.4-.5-.7-.7-1.1s-.5-.7-.8-1.1l-.8-1c-.3-.3-.6-.6-1-.9-.3-.3-.6-.6-1-.8-2.8-2.1-6.1-3-9.2-2.9l-.3.7c2.2 2.2 4.2 4.1 5.5 6.2 1.3 2 1.8 4.2 2.5 6.7.6 2.5 1.5 5.4 2.6 8.3.3.7.6 1.5.9 2.2s.7 1.4 1.2 2.1c.2.3.4.7.7 1 .3.4.6.8.9 1.1s.7.7 1 .9c.4.3.7.5 1.1.8 1.5.9 3 1.5 4.5 2s2.9.9 4.4 1.3 2.9.9 4.5 1.4c1.5.4 3.1.8 4.8.8 1.6 0 3.3-.3 4.9-.9s3.1-1.4 4.5-2.6 2.5-2.7 3.1-4.5.5-3.6-.3-5.1z"/><path d="m56.8 61.5c.6.4 1.3.6 1.9.7.7 0 1.3-.1 1.9-.3l-.1-.6c-1.1 0-2.1-.4-2.7-1.1s-.8-1.6-.8-2.6c0-.9.2-1.9.6-2.7.2-.3.4-.6.6-.8 1 .6 2 1.3 2.9 1.8 1.1.7 2.3 1.4 3.3 2.2l2.2 1.6 1.4-2.7c.6-1.3 1.5-2.2 2.5-2.9s2.4-1.3 4-1.8 3.3-.9 5.1-1.1c1.8-.3 3.6-.3 5.4-.5l.9-.1-.1-.6c-.1-.8.4-1.7 1.1-2.6.3-.5.6-1 .9-1.6.2-.3.3-.7.4-1 1.3-.1 2.6.1 3.2.6.4.3.5.7.6 1.1.1.5.1 1 0 1.6s-.3 1.2-.5 2.1c-.2.8-.4 1.5-.7 2.1s-.6 1-1 1.4c-.4.5-.9 1-1.5 1.5l-3.2 2.8 4.1 2c1.1.5 1.9 1.2 2.5 2.2.7 1 1.2 2.2 1.6 3.6.8 2.8 1.1 6.1 1.3 9.4l.4 5.1c.1 1.7.3 3.4.6 5.2.3 1.7.6 3.5 1.3 5.2.3.9.8 1.7 1.3 2.4.6.8 1.3 1.4 2.1 1.8l.3-.5c-1.1-1.2-1.5-2.7-1.7-4.3s-.2-3.2 0-4.9c.1-1.6.2-3.3.4-5 .1-1.7.3-3.4.4-5.1.2-3.5.2-7-.6-10.8-.4-1.9-1.1-3.9-2.4-5.7-.6-.8-1.2-1.6-2-2.2.5-.8.8-1.6 1.1-2.4.3-1 .5-2 .6-2.9.1-.8.3-1.9.2-3s-.3-2.3-.9-3.4-1.6-2.1-2.8-2.6-2.3-.5-3.3-.4-2 .4-2.8.7l-1 .4.2.8c.1.3.1.7-.1 1.2-.1.5-.4.9-.7 1.4s-.6 1-.8 1.6c-.1.3-.3.7-.3 1.1-1.5 0-3-.1-4.6-.3-1.8-.2-3.7-.5-5.6-.5-2 0-4.1.4-6.1 1.6-1.2.7-2.2 1.7-3 2.9-.5-.3-1-.5-1.6-.7-1.3-.6-2.6-1.1-3.9-1.6l-.7-.3-.4.1c-.5.1-1 .3-1.5.6-.4.3-.7.6-1 1-.5.7-.8 1.4-1 2.1-.4 1.4-.3 2.7 0 4.1s.9 2.8 2.1 3.6zm1.9-7.5c-.1 0-.1 0 0 0z"/><path d="m80.9 180.7c-1.2-.9-2.6-1.4-3.9-1.7-.3-.1-.7-.2-1-.2-.3-.1-.7-.1-1-.2-.6-.1-1.3-.2-2-.3-.4 0-.7-.1-1.1-.1s-.7 0-1.2.1l-.6.1c-.2 0-.4.1-.7.2-.2.1-.4.1-.7.2-.2.1-.5.2-.7.3l-.3.2-.3.2c-.2.2-.5.3-.7.5-.4.4-.8.8-1.2 1.3-.3.5-.6 1-.8 1.5s-.4 1-.4 1.5c-.1.5-.1.9-.2 1.4v1.2c0 .4.1.8.1 1.2.1.4.1.8.2 1.1.2.7.3 1.4.6 2 .2.6.5 1.3.7 1.9.5 1.1 1 2.1 1.5 3.3.6 1.1 1.2 2.4 2.2 3.6.5.6 1.1 1.2 1.9 1.7.4.3.8.4 1.2.6.4.1.8.3 1.2.3l.6.1h.6c.4 0 .7 0 1.1-.1.7-.1 1.4-.2 2.1-.5.3-.1.7-.3 1-.5s.6-.4.9-.7c.5-.6.8-1.3 1-1.9.3-1.3.3-2.5.5-3.7.1-1.2.3-2.4.6-3.6l-.9 3.6c-.3 1.2-.6 2.4-1.2 3.4-.3.5-.6.9-1 1.1s-.9.3-1.4.3c-1 0-2.2-.4-2.9-.8-.7-.5-.9-1.1-1.2-1.9-.2-.8-.4-1.9-.7-3.1-.2-1.2-.5-2.4-.9-3.6-.1-.6-.3-1.1-.4-1.6s-.2-1-.4-1.5c-.1-.2-.1-.5-.1-.7s-.1-.5-.1-.6c0-.2 0-.4-.1-.6 0-.2 0-.3 0-.4 0-.2 0-.2 0-.3s0-.1 0-.2v-.1s0 0 0-.1c0 0 0 0 0-.1l.1-.1c.5-.8 3.4-1.4 5.5-1.8 1.1-.2 2.2-.2 3.1.1 1 .2 1.8.9 2.3 2 .5 1 .7 2.2.7 3.4v.9l-.1.9c-.1.6-.2 1.2-.4 1.8l.4-1.8c.1-.6.3-1.2.3-1.8.2-1.2.3-2.5 0-3.8.1-1.4-.6-2.7-1.8-3.6z"/><path d="m140.8 65.7c-.9-1-1.9-1.7-2.9-2.1-.2-.1-.6-.2-.8-.4-.3-.1-.6-.2-.8-.3-.6-.1-1.1-.2-1.6-.3-1.1-.1-2.1-.1-3.1-.1-2.1.1-4.1.5-6.1 1.2-1 .4-2 .8-3 1.5-.5.3-1 .8-1.5 1.3-.4.6-.9 1.5-.8 2.4 0 .2.1.5.1.7.1.2.1.4.2.6.2.3.4.6.6.8.4.5.9.8 1.4 1 .9.5 1.9.8 2.9 1l.3-.5c-.7-.7-1.4-1.3-1.9-2-.3-.3-.5-.7-.6-1s-.1-.5 0-.5.1 0 .3-.1.4-.2.8-.3c.6-.2 1.4-.4 2.2-.6 1.6-.3 3.4-.4 5-.4 1.7 0 3.4.1 4.6.4.7.2 1.4.4 1.9.7s.9.7 1.2 1.2c.3.6.4 1.4.4 2.3s-.2 1.7-.4 2.6c-.5 1.8-1.3 3.5-2 5.2-.4.9-.8 1.8-1.1 2.7-.3.8-.8 1.7-1.2 2.5-.8 1.6-1.8 3.2-2.7 4.9-.9 1.6-1.7 3.3-2.6 5s-1.7 3.4-2.5 5.2c-.4.9-.7 1.8-1.1 2.8-.2.7-.3 1.3-.4 1.8s-.2 1-.2 1.5c-.2 2-.3 3.8-.4 5.6-.1.9-.1 1.7-.2 2.4l-.1.4c0 .1 0 .1-.1.2-.1.2-.2.4-.3.6-.3.4-.8.7-1.5 1s-1.6.4-2.5.6c-1.8.3-3.7.4-5.7.9v.6c1.8.5 3.6 1.1 5.6 1.4 1 .2 2 .3 3.2.3 1.1-.1 2.4-.3 3.6-1.1.6-.4 1.1-.9 1.6-1.4.2-.2.4-.6.6-1 .1-.3.3-.6.4-.9.4-1.1.6-2.1.8-3.1.4-2 .6-3.8.9-5.6l.2-1.2c.1-.4.2-.7.2-1l.8-2.5c.6-1.7 1.2-3.4 1.8-5.2.6-1.7 1.3-3.5 1.9-5.3s1-3.7 1.4-5.6c.2-.9.4-1.9.5-2.9.1-.5.2-.9.3-1.4.1-.4.2-.9.4-1.3.5-1.8 1.3-3.5 2-5.3.4-.9.7-1.8 1-2.8s.5-2.1.4-3.3c.1-1.5-.5-2.8-1.4-3.8z"/><path d="m110.3 87.3c1 .9 2 1.8 2.8 2.9.9 1.1 1.6 2.4 2.3 4 .7-1.6.7-3.5.2-5.2-.6-1.7-1.7-3.3-3-4.4-1.4-1.2-3.1-2-4.8-2.3s-3.5-.2-5.1.5c1.6.8 2.9 1.4 4.2 2.1 1.2.7 2.4 1.5 3.4 2.4z"/><path d="m188.6 105.3v-.3c7.4-1 9.9-3.5 9.9-18.9 0-14.3-2.3-19-15.6-19h-18.9v78.3h17c15.8 0 18-5.4 18-22.3 0-13.3-1.7-16.2-10.4-17.8zm-13.7-29.6h5.1c6.9 0 8.3 2.2 8.3 11.1 0 12.8-.7 14.1-7.2 14.1h-6.3v-25.2zm6.7 61.3h-6.7v-27.8h7c6 0 6.9 1.7 6.9 13.6.1 12.4-1 14.2-7.2 14.2z"/><path d="m235 121.5v-17.5c0-10.1-6.7-13.6-14.9-13.6-9.4 0-14.7 5.4-14.7 14.6v27.5c0 10.1 6.7 13.6 14.4 13.6 11.3 0 15.2-5.3 15.2-10.8v-7.7h-9.5v5c0 4.3-1.1 7-4.9 7-3.3 0-5-1.4-5-6.5v-11.6zm-19.4-18.6c0-3.9 1.2-6 5-6 3.5 0 4.9 2 4.9 6.8v10.6h-9.9z"/><path d="m260.8 90.4c-5 0-6.7 1.2-9.1 6.3h-.2v-5.6h-9.5v54.4h10.2v-37.8c0-5.6 3.6-7 8.7-7v-10.3z"/><path d="m292.9 150.8v-59.7h-9.5v4.9h-.2c-2.7-4-5.1-5.5-9.6-5.5-6 0-9.5 4.6-9.5 12.6v28.6c0 8 3.6 12.6 9.5 12.6 4 0 6.9-1.3 9-4.6h.2v13.6c0 4.6-1.2 6.2-3.8 6.2-2.8 0-3.8-1.5-3.8-4.7v-4.2h-10.2v4.6c0 8 6 10.8 13.3 10.8 9.9-.1 14.6-5.6 14.6-15.2zm-10.2-19.5c0 4-2.1 5.7-4.1 5.7-2.7 0-4.4-1.5-4.4-7.8v-26c0-4.6 1.6-5.6 4-5.6 2.9 0 4.6 2 4.6 5.7v28z"/><path d="m329 103c0-8-3.6-12.6-9.5-12.6-1.6 0-3.5.3-5.1 1.1s-3 2-3.9 3.5h-.2v-27.8h-10.2v78.3h9.5v-3.9h.2c2 2.6 5.5 4.6 9.6 4.6 6 0 9.5-4.6 9.5-12.6v-30.6zm-10.2 28.8c0 6.3-1.7 7.8-4.4 7.8-2.1 0-4.1-1.7-4.1-5.7v-27.4c0-6.7 1.8-8.9 4.7-8.9 2.3 0 3.9 1.5 3.9 7.4v26.8z"/><path d="m346.8 155.4v-64.3h-10.2v62.4c0 3.8-1.1 4.4-5.3 4.6v7.8c12.9-.2 15.5-3 15.5-10.5z"/><path d="m336.6 67.2h10.2v10.8h-10.2z"/><path d="m357.4 149.8 2.5-6c2.6 1.6 5.6 2.3 9 2.3 9.1 0 14.4-5.4 14.4-14.6v-27.5c0-4.1-1.1-7-2.9-9.1l3.3-7.7-3.4-1.7-2.9 6.9c-2.5-1.4-5.4-2-8.6-2-9.1 0-14.4 5.4-14.4 14.6v27.5c0 3.8 1 6.7 2.6 8.6l-2.9 6.9zm7.2-45.4c0-4.3 1.1-6.8 4.3-6.8 3.1 0 4.1 2.3 4.2 5.2l-8.3 20.2h-.2zm8.3 7.8h.2v19.9c0 4.3-1.1 6.8-4.2 6.8s-4.2-2.3-4.3-6.4z"/><path d="m400.8 107.6c0-5.6 3.6-7 8.7-7v-10.2c-5 0-6.7 1.2-9.1 6.3h-.2v-5.6h-9.5v54.4h10.2v-37.9z"/><path d="m431.9 90.4c-2.1 0-3.9.4-5.5 1.4-1.6.9-2.9 2.2-3.9 3.8h-.2v-4.6h-9.5v54.4h10.2v-41.4c0-4.2 2-5.7 4.4-5.7 3.1 0 3.9 2.1 3.9 4.9v42.4h10.2v-44.3c0-8.2-4.5-10.9-9.6-10.9z"/><path d="m164.9 223.7h6.4v-33.3h9.9v-5.4h-9.9v-25.2h10.4v-5.4h-16.8z"/><path d="m188.6 154.4h6.3v7.3h-6.3z"/><path d="m188.8 225.5c0 2.5-.9 3.7-2.4 3.7-.5 0-1-.1-1.4-.2v4.5c.7.3 1.6.5 3 .5 2.8 0 6.8-1.5 6.8-6.6v-56.1h-6z"/><path d="m212.4 170.8c-5.1 0-9.9 2.1-9.9 10.1v33.3c0 8 4.8 10.1 9.9 10.1s9.9-2.1 9.9-10.1v-7.4h-6v7.4c0 3.8-1.5 5.3-3.9 5.3s-3.9-1.4-3.9-5.3v-15.2h13.8v-18.1c0-8-4.8-10.1-9.9-10.1zm4 22.9h-7.9v-12.8c0-3.8 1.5-5.3 3.9-5.3s3.9 1.4 3.9 5.3v12.8z"/><path d="m229.9 154.4h6v69.3h-6z"/><path d="m244.1 154.4h6v69.3h-6z"/><path d="m265.9 190.4c-1.5-2.2-2.2-3.6-2.2-5.2v-5.9c0-2 .7-3.7 3.1-3.7 1.9 0 3.1 1.2 3.1 3.6v7.8h5.6v-8.6c0-3.2-2-7.5-8.4-7.5-5.4 0-9.3 3.3-9.3 9v6.7c0 2.9 1.1 4.7 2.8 7l6.8 9.3c1.4 1.9 2.2 3.8 2.2 5.8v6.3c0 2.4-.5 4.5-2.9 4.5-2.6 0-3-2-3-4.4v-8.1h-6v9.1c0 5.9 3.9 8.2 8.8 8.2 5.8 0 8.9-3.2 8.9-8.8v-8.8c0-2.4-.7-3.7-2.1-5.8z"/><path d="m292.4 170.8c-5.1 0-9.9 2.1-9.9 10.1v33.3c0 8 4.8 10.1 9.9 10.1s9.9-2.1 9.9-10.1v-7.4h-6v7.4c0 3.8-1.5 5.3-3.9 5.3s-3.9-1.4-3.9-5.3v-15.2h13.8v-18.1c0-8-4.8-10.1-9.9-10.1zm3.9 22.9h-7.9v-12.8c0-3.8 1.5-5.3 3.9-5.3s3.9 1.4 3.9 5.3v12.8z"/><path d="m315 175h-.2v-3.6h-5.6v52.3h6v-39.3c0-5.5 2-7.7 7.8-7.7v-6c-3.8.1-6.2 1.5-8 4.3z"/><path d="m337.8 215.6h-.2l-5-44.2h-5.5l6.2 52.3h8.8l6.3-52.3h-5.6z"/><path d="m354.1 154.4h6.3v7.3h-6.3z"/><path d="m354.2 171.4h6v52.3h-6z"/><path d="m377.7 170.8c-5.1 0-9.9 2.1-9.9 10.1v35.5c0 5.5 4.2 7.9 9 7.9 5.8 0 8.9-3.2 8.9-8.8v-8.4h-6v8.4c0 2.4-.9 3.9-3.1 3.9s-3-1.2-3-3.9v-35.6c0-3 1.2-4.3 3.3-4.3 1.9 0 2.8 1.1 2.8 4.3v8.1h6v-8.7c0-5.7-2.8-8.5-8-8.5z"/><path d="m402.5 170.8c-5.1 0-9.9 2.1-9.9 10.1v33.3c0 8 4.8 10.1 9.9 10.1s9.9-2.1 9.9-10.1v-7.4h-6v7.4c0 3.8-1.5 5.3-3.9 5.3s-3.9-1.4-3.9-5.3v-15.2h13.8v-18.1c0-8-4.8-10.1-9.9-10.1zm4 22.9h-7.9v-12.8c0-3.8 1.5-5.3 3.9-5.3s3.9 1.4 3.9 5.3v12.8z"/><path d="m100.5 146.2c-.4 2.1-.4 4.3-.1 6.5.4 2.6 1.3 5.1 2.4 7.4.5 1.2 1.1 2.3 1.7 3.4s1.2 2.1 1.8 3.2c.6 1 1.2 2 1.7 3s1 1.9 1.4 2.9c.8 2 1.5 4.1 2 6.2.3 1.1.5 2.2.7 3.2.2 1.1.4 2.2.6 3.3.8 4.5 1.2 9.1 1.8 13.9.3 2.4.5 4.8.8 7.2s.7 4.8 1.3 7.2h.7c.6-2.4 1.1-4.8 1.5-7.2s.8-4.8 1.1-7.2c.5-4.9.8-9.8.3-14.9-.5-5-1.9-10.2-4.4-14.8-.6-1.2-1.3-2.3-2.1-3.4-.7-1.1-1.5-2-2.2-3s-1.5-1.9-2.3-2.8c-.7-.9-1.5-1.8-2.2-2.7-1.4-1.8-2.7-3.6-3.5-5.7-.8-2-1-4.3-.5-6.5.2-1.1.6-2.2 1.2-3.2.5-1 1.2-2 2-2.9s1.6-1.8 2.4-2.8c.8-.9 1.7-1.9 2.4-3.1s1.3-2.6 1.5-3.9c.3-1.4.4-2.6.4-3.9v-1.1c0-.4 0-.8-.1-1.2-.1-.8-.2-1.5-.4-2.2-.4-1.4-.8-2.6-1.4-3.8-1.1-2.3-2.3-4.3-3.2-6.3-.5-1-.8-2-1-3s-.1-2.1.2-3.3l-.6-.4c-.5.5-.9 1-1.2 1.6s-.6 1.3-.7 1.9c-.3 1.4-.3 2.8-.1 4.1.4 2.6 1.2 5 1.7 7.2.3 1.1.5 2.1.6 3.1.1.5.1.9.1 1.4 0 .2 0 .4-.1.6v.3c0 .1 0 .3-.1.4-.2 1.1-.4 2.2-.6 3.2s-.4 1.9-.7 2.9c-.4 1.4-.8 3.1-1.3 4.8-5.7-.6-11.3-2-16.4-4.4-2.8-1.3-5.5-2.8-8-4.6s-4.9-3.8-7.1-6-4.1-4.6-5.7-7.3-2.8-5.6-3.8-8.5-1.9-5.9-2.5-8.9c-.5-2.2-.8-4.4-1.1-6.6 1.6-2.4 3.2-4.8 4.8-7.3l-.4-.4c-4.8 2.3-8.9 5.8-12.5 9.7-.9 1-1.7 2-2.5 3-.4.5-.8 1.1-1.2 1.6s-.8 1.2-1.1 1.7c-1.3 2.3-2.3 4.4-3.7 5.8-.3.3-.7.7-1.1.9-.4.3-.8.5-1.2.8-.9.5-2 .9-3.2 1.1-2.3.6-4.9.7-7.3.1-2.4-.5-4.7-1.7-6.4-3.4-.8-.8-1.5-1.7-2-2.6s-.8-1.7-.9-2.5l-.3-1.6-1.2-.4c-.8-.2-1.6-.3-2.6-.3-.9 0-1.9.1-2.9.5s-2 1.1-2.7 1.9c-.7.9-1.1 1.9-1.2 2.8-.4 1.8-.1 3.4.3 4.9s1.1 2.8 2 4.1l.5-.2c.1-1.5.1-2.9.3-4.2.1-1.3.4-2.6.9-3.4.2-.4.5-.7.7-.9s.5-.2.8-.3.8-.1 1.2-.1h.3c.5 1 1.1 1.8 1.8 2.5 1.1 1.1 2.4 1.8 3.7 2.4 2.6 1.1 5.1 1.8 7.7 2.5l3.9.9c1.3.3 2.6.5 4 .6s2.8.1 4.3-.2c.4-.1.8-.2 1.1-.3.4-.1.8-.3 1.1-.5.7-.3 1.4-.8 2-1.3 2.5-2 4-4.4 5.4-6.5l2-3 2.1-3.1c.1-.1.1-.2.2-.3 0 2.2.1 4.4.4 6.6.4 3.3 1.2 6.6 2.3 9.8s2.6 6.2 4.2 9.1 3.3 5.8 5.2 8.5 4.2 5.2 6.7 7.5c2.5 2.2 5.3 4.2 8.2 5.8 5.5 2.9 11.5 4.4 17.4 4.4zm-40.9-49.7c.5 3.1 1.3 6.2 2.5 9.1s2.8 5.7 4.5 8.3 3.5 5.2 5.5 7.6 4.3 4.6 6.8 6.5 5.2 3.6 8.1 4.9c5.3 2.4 11.2 3.5 16.9 3.4-.2.6-.4 1.1-.5 1.7-.1.4-.3.8-.5 1.3-6.1-.5-12-2-17.4-4.5-2.8-1.3-5.5-2.8-8-4.6s-4.9-3.8-7.1-6-4.1-4.6-5.7-7.3-2.8-5.6-3.8-8.5-1.9-5.9-2.5-8.9c-.5-2.2-.8-4.4-1.1-6.6.5-.8 1.1-1.6 1.6-2.5.2 2 .4 4 .7 6.1zm-2.6-2.9c0 1.2.1 2.4.2 3.6-.1-1.1-.3-2.2-.4-3.2.1-.2.1-.3.2-.4zm18.9 41.5c-2.5-2.1-4.8-4.4-6.9-6.9s-4-5.3-5.4-8.2c-1.5-3-2.5-6.1-3.5-9.2-.7-2.5-1.4-5.1-1.9-7.7.5 2 1 3.9 1.8 5.8 1.2 2.9 2.8 5.7 4.5 8.3s3.5 5.2 5.5 7.6 4.3 4.6 6.8 6.5 5.2 3.6 8.1 4.9c5.6 2.5 11.9 3.7 18 3.3-.3.6-.5 1.3-.9 1.9-.5 1.2-.9 2.4-1.3 3.6-.1.3-.1.6-.2.8-5.9-.7-11.5-2.5-16.6-5.3-2.8-1.5-5.5-3.3-8-5.4z"/><path d="m202.5 50.1c-.4-.8-.8-1.6-1.2-2.4-.2-.4-.5-.8-.8-1.2l-.8-1-1.7-2-3.3-4.1-3.4-4c-2.2-2.6-4.3-5.4-6.7-8.1-1.2-1.3-2.5-2.6-3.9-3.8s-2.9-2.2-4.5-3.1l-1-.5-.5.9c-.2.4-.5.8-.8 1.2-.1.1-.2.3-.2.4-.3-.4-.7-.8-1-1.2-.6-.8-1.1-1.7-1.7-2.5-.5-.9-1.1-1.7-1.7-2.6-.6-.8-1.3-1.7-2-2.4.6.8 1.1 1.8 1.5 2.7s.8 1.9 1.3 2.8c.4.9.9 1.9 1.4 2.8s1.1 1.9 2 2.7l.9.8.6-1.2c.2-.3.4-.7.7-1.1.1-.1.2-.2.3-.4 1.1.8 2.2 1.6 3.2 2.6 1.2 1.2 2.4 2.4 3.5 3.7 2.3 2.6 4.4 5.4 6.8 8l3.7 3.8c1.2 1.2 2.5 2.5 3.7 3.7l1.9 1.8c.3.3.7.6 1 .9s.6.5.9.9c.5.6 1 1.4 1.6 2.1s1.2 1.4 2.1 1.7c-1.1-.4-1.5-1.2-1.9-1.9z"/><path d="m199.3 29.8c1.7-1.1 3.1-2.7 4.2-4.3 3.1 2.7 6.1 5.6 9.2 8.4.9.8 1.7 1.6 2.6 2.4s1.9 1.6 2.8 2.3c1.9 1.4 3.9 2.6 5.8 4.1-1.3-2-3-3.7-4.7-5.4-.8-.8-1.6-1.6-2.3-2.5-.8-.9-1.6-1.8-2.3-2.6-3.2-3.5-6.6-6.8-10.5-9.6l-1.3-.9-.7 1.3c-1 2.1-2.3 4-3.9 5.6-.8.8-1.7 1.5-2.7 2.2s-2 1.3-3.1 1.9c1.2-.2 2.4-.6 3.5-1 1.2-.6 2.3-1.2 3.4-1.9z"/><path d="m237.3 43.1-.6-.6-.6-.6c-.4-.4-.9-.8-1.3-1.2-.9-.8-1.8-1.5-2.7-2.2l-1.3-1-.8-.5c-.1-.1-.2-.2-.3-.2l-.3-.3c-1.6-1.6-3.3-3.2-5.2-4.7-.5-.4-1-.7-1.5-1-.3-.2-.5-.3-.8-.5-.2-.1-.3-.1-.5-.2-.1 0-.2-.1-.3-.1s-.1 0-.2 0-.2 0-.3 0c-.4.1-.6.4-.7.6s-.1.4-.2.5c-.1.3-.1.6-.1.9 0 .6 0 1.2.1 1.8.2-.6.4-1.1.7-1.6.1-.3.2-.5.4-.7 0 0 .1-.1.1-.1.1.1.2.1.3.2.2.2.4.4.6.6.4.4.8.8 1.1 1.2 1.5 1.7 3 3.4 4.7 5.1l.4.3c.2.2.3.2.4.3l.7.5c.5.3 1 .7 1.5 1 1 .6 2 1.2 3 1.8l1.5.9c.2.1.5.3.8.4s.6.3.8.4c1.1.5 2.2.8 3.1 1.5-.6-.9-1.6-1.8-2.5-2.5zm-16.5-11.7c0-.1.1-.1 0 0 .1-.2.2-.1 0 0z"/><path d="m165.1 12.3c.2-.3.3-.5.5-.7v-.2c-2 2.2-3.8 4.5-5.8 6.7-.5.6-1 1.1-1.5 1.7s-.9 1.2-1.3 1.8c-.8 1.3-1.5 2.6-2.3 3.8s-1.6 2.5-2.4 3.7-1.7 2.4-2.8 3.3-2.5 1.5-3.8 2.3c-1.2.8-2.5 1.5-3.9 1.9l-.4.1c-.1-.1-.2-.1-.3-.2l-.4-.2c-.5-.3-1-.6-1.5-.9-.5-.4-1-.7-1.7-1.1s-1.5-.7-2.5-.7-1.8.4-2.5.8-1.2 1-1.7 1.4c-.5.5-.9.9-1.3 1.2l-.8.6c-.3.2-.5.5-.8.7-1 1-1.8 2-2.5 3.1-.7 1-1.4 2.1-2.2 3-.7.9-1.6 1.9-2.5 2.8-1.7 1.9-3.5 3.7-5.1 5.6 2.1-1.5 4.1-3 6.1-4.6 1-.8 2-1.6 2.9-2.6.9-.9 1.7-2 2.6-2.9.8-.9 1.6-1.9 2.5-2.6.2-.2.4-.4.7-.6l.7-.5c.6-.5 1.1-.9 1.5-1.3.9-.9 1.7-1.4 2.3-1.4.3 0 .7.1 1.1.4.4.2.9.6 1.5 1 .5.4 1.1.7 1.7 1.1l.5.2c.1.1.2.1.3.2.2.1.4.3.7.5 1 .7 1.9 1.6 3.2 2.3.3.2.6.4 1 .5.2.1.4.1.6.2l.4.1c.4.1.8.4 1.2.7.8.7 1.4 1.6 2 2.7.6 1 1 2.1 1.3 3.3.1.3.1.5.2.9.1.3.1.7.3 1 .2.7.6 1.4 1.1 2 .5.5 1 .9 1.3 1.3.4.4.6.9.9 1.5.4 1.1.7 2.4 1 3.6.1-1.3.2-2.6 0-3.9-.1-.7-.3-1.4-.7-2s-.9-1.2-1.1-1.6c-.1-.1-.2-.3-.2-.4.1-1.6.7-3.2 1.3-4.8.7-1.6 1.4-3.2 2-5 .5-1.7.8-3.5 1.2-5.2.3-1.7.7-3.5 1.1-5.2s.9-3.4 1.4-5.1 1-3.4 1.5-5.1 1-3.4 1.6-5.1 1.3-3.3 2.3-4.8c-.2.2-.3.4-.5.7z"/></g></svg>