<svg xmlns="http://www.w3.org/2000/svg" width="1920.64" height="472.524" viewBox="0 0 1920.64 472.524">
  <title>Linjer</title>
  <g opacity="0.1">
  <path d="M157.975,279.733s20.292,13.246,24.519,30.156" transform="translate(0.32 -79.922)" fill="none" stroke="#d4edfc" stroke-linecap="round" stroke-linejoin="round" stroke-width="0.64"/>
  <path d="M361.461,287.63s-8.527,1.369-20.294,4.5-11.273,0-21.983-3.945-15.219-2.819-33.256,1.127-7.328,4.509-20.293,14.092-21.983,2.818-36.074,0-13.528-7.892-21.983-15.219c-.754-.654-1.432-1.214-2.042-1.693l-2.176-1.515" transform="translate(0.32 -79.922)" fill="none" stroke="#d4edfc" stroke-linecap="round" stroke-linejoin="round" stroke-width="0.64"/>
  <path d="M453.055,213.924s11.555,14.515,17.756,25.788,17.474,20.856,17.474,20.856" transform="translate(0.32 -79.922)" fill="none" stroke="#d4edfc" stroke-linecap="round" stroke-linejoin="round" stroke-width="0.64"/>
  <path d="M561.168,185.531c23.668,5.032,68.034,45.726,68.034,45.726s19.728,6.764,20.855,29.311,40.021,99.206,64.822,116.116l42.507,36.376" transform="translate(0.32 -79.922)" fill="none" stroke="#d4edfc" stroke-linecap="round" stroke-linejoin="round" stroke-width="0.64"/>
  <path d="M807.321,373.865s-6.2-.563-23.674-15.219S726.716,286.5,710.37,260.568s-47.912-25.929-47.912-25.929-19.522.873-23.5,2.607" transform="translate(0.32 -79.922)" fill="none" stroke="#d4edfc" stroke-linecap="round" stroke-linejoin="round" stroke-width="0.64"/>
  <path d="M885.107,272.687s-19.164,20.574-25.928,26.774-21.42,24.238-27.62,34.384-18.6,38.329-29.311,47.348-17.474,17.474-29.874,24.238-34.384,16.346-44.53,24.237S704.733,443.2,697.969,443.2s-18.6,6.2-35.511,11.838-33.256,15.782-49.039,18.037-43.966,4.509-53.549,2.818-8.455-6.764-27.619-9.018-34.948-1.128-43.966,2.254c0,0-74.481,26.375-94.133,29.875-4.576.815-36.639-1.691-63.131-15.783s-7.992-9.582-50.217-24.238-70.972-23.674-85.063-37.766-13.528-11.837-18.038-23.674-9.362-37.53-22.614-39.621" transform="translate(0.32 -79.922)" fill="none" stroke="#d4edfc" stroke-linecap="round" stroke-linejoin="round" stroke-width="0.64"/>
  <path d="M843.4,279.109s6.2-5.859,7.889-18.541,1.691-14.656,1.691-14.656-1.973-3.663,10.146-3.382l12.683-.015s3.382.015,3.664,5.088,6.2,18.038,9.582,20.574" transform="translate(0.32 -79.922)" fill="none" stroke="#d4edfc" stroke-linecap="round" stroke-linejoin="round" stroke-width="0.64"/>
  <path d="M371.042,373.865a185.52,185.52,0,0,1-61.722,2.819c-33.82-4.228-33.82-10.992-59.185-9.3s-25.365,12.076-41.43,5.193-15.219-8.575-42.275-12.8-26.211-5.637-59.185-4.51-85.96-1.973-102.588,0c0,0,33.82-24.8,48.475-29.311s29.311-6.764,42.839-14.655,32.693-25.929,42.839-31.565,12.4-2.255,19.165,0-2.255,0,6.764,2.254,36.075,5.637,47.348,1.128,19.165-5.042,25.929-6.467,15.782-4.212,29.31,0,12.4-4.164,24.8-2.231,36.075,10.952,43.966,13.207,19.165,2.255,29.311-1.127,36.075-19.165,43.966-32.693,20.433-37.343,26.774-39.88,12.683-.422,16.91,0,27.479-23.251,31.707-28.324,2.536-11.414,6.764-13.528,37.625,8.878,45.657,8.878,21.56,5.073,41.429,7.609,27.2,5.214,31.143.987-1.691-4.228,5.637-7.046,31.283-2.819,36.638-.564,51.294,51.858,69.895,61.158,78.632,32.129,102.306,34.666,45.657,1.691,53.267-1.691l7.609-3.382s36.357-27.056,41.43-43.121,11.837-28.747,17.755-33.82,27.9-31.284,38.048-28.747,19.447,13.528,32.129,14.373,47.348-8.455,56.649-10.146,21.137-6.764,31.283-15.219,38.894-31.283,43.967-35.511,10.146-12.682,18.6-11.837,54.957,13.528,69.331,12.683,36.357-5.919,49.039-3.382,67.64,2.536,73.559,1.691c2.448-.35,6.488-4.317,11.043-9.328,6.454-7.1,13.942-16.3,19.395-20.265,9.3-6.764,17.756,0,17.756,0s17.755-8.455,22.828-8.455,66.795,10.992,71.022,16.065,19.447-3.382,31.284-9.3,42.275-13.528,54.958-2.536,18.6,26.21,23.674,27.9,24.519,7.61,28.747,16.065,1.691,22.828,5.073,28.747,22.828,9.3,37.2,15.219,22.829,7.609,27.9,12.682,8.455,2.537,16.064,3.382,11.837,5.073,14.374,14.374,5.918,17.756,11.837,21.983,26.21-11.837,38.893-13.528,34.665-2.536,43.12,1.691,19.447.846,27.057,7.61,9.3,14.373,24.519,23.674S1920,252.4,1920,252.4" transform="translate(0.32 -79.922)" fill="none" stroke="#d4edfc" stroke-linecap="round" stroke-linejoin="round" stroke-width="0.64"/>
  <path d="M934.282,447.934s5.783.617,28.046-12.065,25.931-13.528,50.45-27.9,21.983-10.991,49.039-18.6,23.674-7.609,42.276-15.5,30.438-25.929,80.322-60.594,26.211-27.056,56.649-65.949,23.674-32.129,47.348-57.495,31.284-26.21,50.73-39.738l24.634-35.387" transform="translate(0.32 -79.922)" fill="none" stroke="#d4edfc" stroke-linecap="round" stroke-linejoin="round" stroke-width="0.64"/>
  <path d="M1002.82,189.1s11.1,18.487,12.664,31.769-3.125,42.188,0,53.907,8.594,29.994,9.375,39.217,14.844,42.035,14.844,42.035l32.542,30.656" transform="translate(0.32 -79.922)" fill="none" stroke="#d4edfc" stroke-linecap="round" stroke-linejoin="round" stroke-width="0.64"/>
  <path d="M1497.706,96.764s11.382,14.432,18.992,22.041,10.146-11.708,21.137-12.618,13.529-1.595,21.138,14.389,5.073,11.757,11.837,21.9c0,0,18.69,29.021,29.69,35.021a17.258,17.258,0,0,1,9,12c2,9,32.831,87.044,41.915,102.022" transform="translate(0.32 -79.922)" fill="none" stroke="#d4edfc" stroke-linecap="round" stroke-linejoin="round" stroke-width="0.64"/>
  <path d="M1754.512,226.692s16.682,11.016,23.446,15.823,21.138,15.8,31.284,23.408l10.146,7.609" transform="translate(0.32 -79.922)" fill="none" stroke="#d4edfc" stroke-linecap="round" stroke-linejoin="round" stroke-width="0.64"/>
  <path d="M1920,321.444s-64.255,7.891-153.315,19.165-133.026,15.782-172.483,15.782-21.419-9.018-86.805,7.892-55.239.4-128.516,22.748S1230.072,418.4,1195.125,422.9s-143.924,23.111-162.713,23.111-65.029-1.343-65.029-1.343" transform="translate(0.32 -79.922)" fill="none" stroke="#d4edfc" stroke-linecap="round" stroke-linejoin="round" stroke-width="0.64"/>
  <path d="M1920,260.568l-71.019,12.119-144.3,11.239L1619,296.144s-83.423,14.027-110.479,19.663-76.659,9.019-131.9,16.91-45.093,13.528-68.767,24.8-33.82,9.019-68.768,16.346-49.6,5.073-66.513,13.166-37.2,20.091-51.857,25.727-41.712,11.274-50.742,18.038-51.846,9.018-75.134,11.273-53.691,4.941-73.663,7.328-33.82,8.455-41.711,8.455S836.632,468,810.7,479.271s0,0-47.348,10.146-51.858,15.783-82.3,24.316-43.966,10.632-95.823,19.65c-6.063,1.055-24.465,8.493-40.593,12.57-11.769,2.975-15.119,4.906-14.673,6.159" transform="translate(0.32 -79.922)" fill="none" stroke="#d4edfc" stroke-linecap="round" stroke-linejoin="round" stroke-width="0.64"/>
  <path d="M1601.29,105.335s-1.367,24.462,0,35.171-.887,9.583,5.877,17.474c0,0,8.333-3.48,13.333,10.52s28,87,36,104l8,17" transform="translate(0.32 -79.922)" fill="none" stroke="#d4edfc" stroke-linecap="round" stroke-linejoin="round" stroke-width="0.64"/>
  <path d="M1727.3,281.321c0-5.74-3.382-23.853-9.3-38.806s-4.228-40.851-4.228-40.851.611-10.227,4.567-11.926a9.214,9.214,0,0,1,1.122-.1" transform="translate(0.32 -79.922)" fill="none" stroke="#d4edfc" stroke-linecap="round" stroke-linejoin="round" stroke-width="0.64"/>
  <line x1="200.468" y1="458.676" x2="580.987" y2="454.533" fill="none" stroke="#d4edfc" stroke-linecap="round" stroke-linejoin="round" stroke-width="0.64"/>
  <path d="M0,451.933s2.4.423,13.817,2.114,19.869,8.878,38.047,13.528,32.129,11.837,57.494,21.983,24.1,5.073,33.82,11.837,27.479,7.61,34.666,11.2,32.129,39.531,32.129,39.531" transform="translate(0.32 -79.922)" fill="none" stroke="#d4edfc" stroke-linecap="round" stroke-linejoin="round" stroke-width="0.64"/>
  </g>
</svg>
