<svg enable-background="new 0 0 1920.6 780.7" height="780.7" viewBox="0 0 1920.6 780.7" width="1920.6" xmlns="http://www.w3.org/2000/svg"><g opacity="0.6" fill="none" stroke="#c9e8fb" stroke-linecap="round" stroke-linejoin="round" stroke-width=".64"><path d="m64.4 242.7s-14.7-17.2-23.3-22.1-38.5-16-38.5-16"/><path d="m41 220.6s20.9-15.4 27-12.3 41.2 24 41.2 24"/><path d="m79.9 215c4.2-2 8.7-3.3 13.4-3.6 7.1-.3 12.3-.6 17.5 2.8s28 10.4 31.3 9.5 10.1-14.6 11.4-15.8 3.4.8 4.6 0 8.3-1.4 9.8-.4 5.2 3.2 6.5 3.8 49.2 5.2 53.1 4 6.5-4 18.7-4 44.2 2.5 60.8 6.8 42.1 16.3 49.5 18.7 8.3.9 16.3 2.8 45.5 6.8 59.6 12.3 24-1.2 31.3 0 9.8.6 17.2 6.1 16.6 13.5 16.6 13.5"/><path d="m298.5 214.5s23-.6 40.9 2.5 20.6 1.8 24 0 6.8-6.8 14.7-5.8c6.2.7 12.5.7 18.7-.1 4.6-.5 48.2.7 65.1 5.6s18.1-1.8 35.6 6.8 21.8 14.6 29.2 15.9 37.6 7.6 37.6 7.6"/><path d="m.5 271.6s0-9.8 14.7-10.4 50.4-20.4 56.5-21.9 27.6-7 32.6-7 35.3-3.2 35.3-3.2l4.1-6.5"/><path d="m2.5 311.5s100-13.5 111.7-11.1l11.7 2.5s28.9-9.8 43-11.7 24-3.1 38.1-6.1c14.1-3.1 24.6-3.7 39.9-9.8s37.5-10.4 46.1-9.8 39.9 3.1 54.1 2.5 27-4.4 41.8-2.5c14.7 1.9 70.7 6.2 89.7 6.2s29.5-.6 44.9 4.3 42.4 29.5 53.5 35.6 25 18.4 28 25.1 11.1 8.6 25.8 17.8 63.3 41.2 86.6 48.5 67 57.1 93.4 90.3 61.4 72.5 76.8 87.9 109 78.2 163.3 78.2"/><path d="m461.9 216.6s9.8 7.7 13.5 15.7 8 .5 11.7 7 16 13.9 19.7 17.6 44.9 8.6 49.8 4.3 11.4-25.2 16.6-32.1c4.9-6.6 17.8-5.8 20.9-9s21.5-11 31.9-9.2 33.8 3.6 42.4 4.2 62.1-1.4 72.5-7.2 24.6-11.3 30.7-23.6 25.8 16.6 25.8 16.6 10.4 9.8 9.8 12.9 3.7 4.5 8 6.2 47.6 30.5 39.9 35.5c-8.4 5.5-3.1 5.1-14.5 7.2-11.5 2.1-36.5 21.2-44.2 15.9-3.3-2.3-5.1-3.5-16.2-7.2s-21.5-12.9-35.6-11.1-21.5 6.8-27.6 11.1-30.1 24-38.1 36.2c-8 12.3-27 33.8-33.8 38.7-4.4 3.1-9.2 5.8-14.1 8"/><path d="m1918.5 282c-7.4-4.9-22-18.8-38.4-22.9s-12.3-6.6-30.3-16.4-20.1-10.2-34.8-9-7.8.4-13.9-5.7-21.3-4.1-38.1-6.1-16.8-7-32.4-10.2-7.4 2-16.4-1.2-7.4-2.9-16.4-7.4-38.5-3.3-47.1-6.6-20.9-11.1-27.4-10.2-2 6.1-8.6 13.5-6.1 4.1-20.1 7.4c-13.9 3.3-5.3 3.7-12.7 9.8s-5.7 2.9-19.3 2.5-24.2 3.3-39.3 3.3-14.3-2-21.7-4.1-8.6-1.6-12.3-4.1-6.1 1.6-10.2 4.9-16.4 3.3-35.2 6.6-28.3 4.1-35.2 2-34 5.3-50.4 6.1-72.1-27.9-76.6-30.7-24.6-16.8-29.5-22.1-14.7-16.8-16.8-20.1-19.3-11.1-24.2-13.5c-4.9-2.5-22.9-3.7-32.8-5.3s-24.6 11.8-30.3 16.7c-8.2 6.8-16.9 13.1-25.8 18.8-7.8 4.9-35.6 19.7-38.9 25.8s-2.9 9.4-6.6 9.8-5.7-5.7-12.7-7.8-5.3 1.6-12.7 2-45.5-54.5-45.5-54.5c.2-2.2.2-4.4 0-6.6-.4-2-4.1-4.5-4.1-4.5.2-2.7.2-5.5 0-8.2-.4-2.5-3.2-3.7-3.2-3.7-.3-3.1-.3-6.3-.1-9.4.4-4.5-.8-9.8-3.3-11.5s-40.1-1.2-43.4 2-4.1 17.2-7.4 21.3-4.9 19.7-12.3 27-14.7 43.4-22.9 50.9-9 8.1-13.9 12.2-13.1 6.6-23.8 16.2l-16.6 16.3"/><path d="m751.1 260.4s-27.5-9.7-39.8-7.9-31.9 8-46.7 15.4-18.4 6.7-35 17.2-21.5 13.5-27.6 18.4-13.3 15.4-19.2 11.7"/><path d="m891.1 584.2s6.4-3 11.3-5.4c4.9-2.5 19.7-12.3 28.9-21.5s16-24 19.7-37.5 21.5-52.8 30.7-65.1c6.8-9.1 13.2-18.5 19-28.3 3.7-6.1 19-27 28.9-39.9 9.8-12.9 35-40.5 39.9-46.1 3.3-3.8 9.5-12.4 15.3-16.1l6.1-3.5"/><path d="m683.2 386.6c1.9 1.1 15.8-6.9 29.3-14.3s19.7-15.4 25.2-21.5 16-10.4 28.3-16.6 29.5-9.8 43.6-11.8 39.3-15.2 59-22.6 27-14.1 59.6-47.5 16-16.4 28.9-30.5 14.1-11.1 21.5-18.4c4.4-4.5 10.2-7.2 16.4-7.8 0 0 5.3-1.4 10.2-11.8s2.6-25.9 2.4-28c0 0 2.9 27.5 17.6 49 14.7 21.4 25.2 30.5 27 34.6s9.2 10.2 14.1 28.6 27.9 58.4 35.1 73.1 26.7 56.5 42.5 76.2 52 55.9 52 55.9 46.1 39.9 50.4 51c0 0 1.6 2.4 4.2 6.4"/><path d="m840.3 528.9c11.4-2.5 22.7-14.4 25.2-22.3s3.1-26.1 3.1-26.1c1.2-9.2 5.5-10.4 11.7-19s27.6-18.4 28.9-23.4 11.1-16.6 18.4-28.9 11.7-16.6 20.3-26.4 25.2-33.2 31.3-43.6 5.5-16 8.7-23.2 6-11.2 11.5-15.5 16-12.3 19-16.3c3.1-4 8.6-7.6 12.3-12.6s-.6-6.8 0-12.9 17.2-19.4 17.2-19.4h4.3"/><path d="m1059.1 246.9s49.8-29.4 59.6-45.4 21.3-35.7 25.4-39.1"/><path d="m1562.7 219.4s-2 8.6-34 15.2-32.8 9.8-50 9-29.5-7.7-53.2-4.3-26.2 3.4-59 19.8-139.3 62.3-185.1 51.6-59.8-26.6-74.5-39.1-27.9-37.1-27.9-37.1"/><path d="m1735.9 300.9c-6.6-1.6-14.7.8-34.4-8.2s-13.9-12.3-30.3-16.4-13.9-6.1-27.9-4.7-25.4-6.8-39.3-14.9c-13.9-8.2-9-10.5-24.6-9.7s-18.8-.6-35.2 5.4-16.4 1.9-24.6 12.5-2.5 11.6-14.7 19.3c-12.3 7.7-13.1 2-18 11.8s-.8 4.9-11.5 11.5c-10.6 6.6-2.5 7.8-18 13.3s-11.5-1-22.9 9.6c-11.5 10.7-17.2 22.9-36.9 33.6s-33.6 20.2-33.6 20.2-31.6 29-43.2 31.5"/><path d="m1363.9 573.3s20.2-32.6 32.5-42.1 20.5-6.1 32.8-4.8 27-11.1 48.3-19.3 44.2-22.1 69.6-29.5 22.1-9.8 46.7-22.9 45.9-27.9 60.6-41 30.3-32.8 37.7-43.4 6.6-13.1 9-28.1 3.3-16.1 9-19.2 16.4-7.6 22.1-8.5 13.1-6.5 21.3-5 12.3-1.5 25.4 0 12.3 3.4 22.9 5 12.3-3.2 18.8-4c11.2-1.3 22.4-1.3 33.6 0 14.7 1.6 18.8 4.9 32.8 12.5 13.9 7.6 30.2 33.8 30.2 33.8"/><path d="m1579.5 780.4c-6.1 0-72.5-38.8-105.7-64.6s-43-22.1-55.3-50.4-22.8-51.6-31.7-63.9-21.2-25.8-32.2-39.3-17.3-20.9-33.8-28.3-33.8-16-44.8-11.1c-11.1 4.9-35.6 11.1-51.6 19.7s-60.2 19.7-86 33.2-30.5 16-36.8 25.8-23.4 23.3-32.1 35.6-16 22.1-27 28.3-19.7 4.9-31.9 19.7-7.4 12.3-25.8 22.1-44.7 7.4-93.6-6.1-58.7-17.2-74.7-23.3-7.4-16-54.1-13.5-93.4-4.9-145-27-151.2-119.3-170.9-135.3-54.1-49.2-72.5-60.2-28.3-18.4-40.5-17.2-29.5 4.6-86-.1-164.7-40.3-179.4-40.4-65.6-10.8-65.6-10.8"/><path d="m1717 211.2 11.8 5.7s9.2 10.4 14.1 19 7.4 17.2 8.6 39.9-3.1 12.9-12.3 22.7-10.4 13.7-10.4 13.7l-2.8 3.9"/></g></svg>
