<?xml version="1.0" standalone="no"?>
<!DOCTYPE svg PUBLIC "-//W3C//DTD SVG 20010904//EN"
 "http://www.w3.org/TR/2001/REC-SVG-20010904/DTD/svg10.dtd">
<svg version="1.0" xmlns="http://www.w3.org/2000/svg"
 width="512.000000pt" height="512.000000pt" viewBox="0 0 512.000000 512.000000"
 preserveAspectRatio="xMidYMid meet">
<metadata>
Created by potrace 1.11, written by Peter Selinger 2001-2013
</metadata>
<g transform="translate(0.000000,512.000000) scale(0.100000,-0.100000)"
fill="#000000" stroke="none">
<path d="M2378 5115 c-1 -1 -39 -5 -82 -9 -44 -4 -82 -8 -85 -10 -3 -2 -31 -7
-61 -11 -174 -21 -440 -100 -643 -191 -624 -281 -1123 -820 -1355 -1464 -31
-87 -78 -245 -86 -290 -2 -14 -7 -36 -10 -50 -33 -142 -49 -299 -50 -500 -1
-229 4 -303 33 -470 181 -1032 975 -1854 1992 -2063 212 -44 336 -55 574 -52
237 3 391 24 605 81 52 13 102 26 110 28 56 14 238 89 365 151 157 77 286 156
420 258 116 89 128 99 270 242 324 324 564 751 666 1183 24 106 24 108 -7 83
-68 -54 -83 -55 -714 -59 -659 -3 -655 -4 -698 61 -24 36 -27 49 -28 143 l-1
103 605 0 c370 0 609 4 615 10 14 14 16 99 2 117 -11 15 -62 17 -501 19 -428
2 -496 4 -541 19 -127 41 -182 145 -177 336 4 188 37 272 127 324 89 52 107
53 739 52 518 -1 587 1 584 14 -44 156 -101 316 -148 420 -14 30 -28 65 -32
78 -4 12 -15 26 -24 30 -21 10 -2358 8 -2422 -2 -25 -4 -58 -9 -75 -12 -69
-11 -186 -49 -264 -85 -344 -160 -587 -472 -656 -844 -19 -100 -22 -283 -6
-370 6 -33 13 -75 16 -92 18 -107 118 -321 202 -433 38 -51 193 -210 204 -210
4 0 14 -6 22 -14 57 -57 248 -155 372 -191 142 -41 197 -44 849 -45 346 0 632
-2 634 -5 12 -11 -173 -162 -283 -231 -272 -170 -532 -245 -855 -248 -171 -1
-211 2 -335 25 -304 55 -617 221 -845 448 -90 90 -211 240 -241 299 -8 15 -16
29 -19 32 -12 10 -88 167 -115 235 -30 74 -72 217 -81 275 -3 19 -7 37 -9 40
-18 30 -27 366 -12 492 61 547 426 1052 930 1287 153 72 292 115 472 147 22 4
468 9 990 11 523 2 1006 4 1075 6 l125 2 -140 141 c-160 161 -231 220 -407
337 -296 198 -656 340 -993 392 -38 6 -120 18 -150 22 -38 4 -442 13 -447 8z
m1005 -1978 c54 -35 67 -71 67 -184 l0 -103 -302 -1 c-716 -2 -927 -4 -934
-11 -10 -11 -13 -94 -3 -110 7 -11 100 -13 501 -13 437 0 499 -2 548 -17 69
-21 130 -73 161 -135 22 -45 24 -60 24 -214 0 -164 0 -166 -30 -225 -22 -43
-44 -68 -78 -91 -90 -60 -117 -62 -767 -60 -568 2 -586 3 -612 22 -48 36 -61
70 -63 169 0 50 1 96 3 103 3 9 149 12 604 12 391 1 605 4 613 11 13 10 15
113 3 126 -4 3 -229 7 -500 8 -479 2 -495 3 -552 24 -127 46 -168 129 -167
332 1 80 3 104 17 175 13 64 63 128 124 160 75 39 126 42 730 41 547 -1 588
-2 613 -19z"/>
<path d="M3914 2833 c-16 -16 -16 -100 -1 -110 7 -5 230 -8 497 -8 427 0 492
-2 540 -17 68 -21 125 -60 151 -101 l20 -32 -2 120 c-2 65 -4 129 -7 141 l-4
22 -591 -2 c-454 -1 -593 -4 -603 -13z"/>
</g>
</svg>
